<svg xmlns="http://www.w3.org/2000/svg" viewBox="0 0 320 80" width="320" height="80">
  <defs>
    <style>
      .text {
        font-family: 'Inter', 'Segoe UI', system-ui, sans-serif;
        font-size: 32px;
        font-weight: 800;
        fill: #f8fafc;
        letter-spacing: 0.15em;
      }
      .accent {
        fill: #22c55e;
        font-weight: 300;
      }
    </style>
  </defs>

  <svg x="10" y="10" width="60" height="60" viewBox="0 0 100 100">
    <path d="M 5,50 L 30,25 L 70,25 L 95,50 L 70,75 L 30,75 Z" fill="none" stroke="#22c55e" stroke-width="3" />
    <path d="M 12,50 L 32,32 L 68,32 L 88,50 L 68,68 L 32,68 Z" fill="#020617" />
    <path d="M 50,32 L 66,41 L 66,59 L 50,68 L 34,59 L 34,41 Z" fill="#16a34a" />
    <path d="M 50,32 L 66,41 L 50,50 Z" fill="#4ade80" opacity="0.5" />
    <path d="M 34,41 L 50,32 L 50,50 Z" fill="#064e3b" opacity="0.3" />
    <path d="M 50,40 L 56,50 L 50,60 L 44,50 Z" fill="#020617" />
    <path d="M 42,42 L 46,40 L 44,44 Z" fill="#ffffff" opacity="0.9" />
  </svg>

  <text x="86" y="52" class="text">GREEN<tspan class="accent">SEER</tspan></text>
</svg>
